<?xml version="1.0" standalone="no"?>
<!DOCTYPE svg PUBLIC "-//W3C//DTD SVG 20010904//EN"
 "http://www.w3.org/TR/2001/REC-SVG-20010904/DTD/svg10.dtd">
<svg version="1.0" xmlns="http://www.w3.org/2000/svg"
 width="256.000000pt" height="256.000000pt" viewBox="0 0 256.000000 256.000000"
 preserveAspectRatio="xMidYMid meet">
<metadata>
Created by potrace 1.11, written by Peter Selinger 2001-2013
</metadata>
<g transform="translate(0.000000,256.000000) scale(0.100000,-0.100000)"
fill="#000000" stroke="none">
<path d="M1160 2453 c-108 -27 -167 -82 -209 -194 -18 -46 -20 -71 -16 -198 2
-80 6 -162 9 -181 3 -19 8 -74 10 -123 l5 -87 -42 -59 c-23 -32 -68 -93 -99
-134 -62 -81 -79 -115 -128 -252 -30 -85 -60 -147 -124 -256 -23 -41 -25 -52
-18 -87 9 -37 6 -44 -35 -106 -53 -80 -75 -96 -142 -100 -60 -4 -98 -26 -107
-62 -4 -15 2 -54 13 -93 20 -67 20 -69 1 -127 -28 -87 -28 -90 -5 -112 31 -28
96 -60 137 -67 143 -23 195 -38 280 -79 162 -77 249 -72 335 18 46 49 56 54
120 66 75 15 280 18 358 6 45 -7 50 -10 67 -50 27 -63 76 -91 161 -89 92 1
140 25 229 115 64 64 86 79 150 103 122 45 167 74 189 121 11 23 19 48 17 56
-5 34 -38 66 -102 98 -88 44 -101 59 -103 118 -2 86 -15 120 -47 128 -28 7
-28 5 -9 68 27 89 22 150 -27 291 -30 88 -70 163 -122 230 -110 141 -127 167
-176 263 -78 155 -82 170 -86 330 -4 182 -9 215 -34 265 -73 148 -270 226
-450 180z"/>
</g>
</svg>
